# xmcd
#
# Track frame offsets: 
#        150
#        13004
#        27006
#        43776
#        53491
#        67776
#        81225
#        90170
#        111166
#        130996
#        145918
#        169609
#        183710
#        197479
#        208005
#        219187
#        226158
#
# Disc length: 3310 seconds
#
# Revision: 0
# Processed by: cddbd v1.5.2PL0 Copyright (c) Steve Scherf et al.
# Submitted via: ExactAudioCopy v1.0b3
#
DISCID=d90cec11
DTITLE=Jean-Paul Amouroux, Memphis Slim - Boogie For Two Pianos - Vol3
DYEAR=1900
DGENRE=
TTITLE0=Movin' On
TTITLE1=Rockin' The Boogie
TTITLE2=Boogie For Lloyd Glenn
TTITLE3=I'm Lost Without You
TTITLE4=How Long Blues
TTITLE5=Rockin' The House
TTITLE6=Baby Please Come Home
TTITLE7=Walking Shoes
TTITLE8=Boogie For Fats Domino
TTITLE9=Christina
TTITLE10=The Come Back
TTITLE11=Boogie For Lionel Hampton
TTITLE12=Where Do I Go From Here
TTITLE13=All By Myself
TTITLE14=Bye-Bye Blues
TTITLE15=Woogie
TTITLE16=Money Honey
EXTD=
EXTT0=
EXTT1=
EXTT2=
EXTT3=
EXTT4=
EXTT5=
EXTT6=
EXTT7=
EXTT8=
EXTT9=
EXTT10=
EXTT11=
EXTT12=
EXTT13=
EXTT14=
EXTT15=
EXTT16=
PLAYORDER=
